<svg xmlns="http://www.w3.org/2000/svg" width="48" height="16" viewBox="0 0 48 16" shape-rendering="crispEdges">
  <rect width="48" height="16" fill="none"/>
  <g transform="translate(0 0)">
    <rect x="5" y="2" width="4" height="1" fill="#f8fbff"/>
    <rect x="4" y="3" width="6" height="2" fill="#f8fbff"/>
    <rect x="5" y="4" width="4" height="3" fill="#0b1622"/>
    <rect x="6" y="5" width="1" height="1" fill="#f2f7ff"/><rect x="7" y="5" width="1" height="1" fill="#f2f7ff"/>
    <rect x="4" y="7" width="5" height="6" fill="#d7e7f7"/>
    <rect x="3" y="12" width="7" height="2" fill="#d7e7f7"/>
    <rect x="9" y="8" width="2" height="3" fill="#cfe1f5"/>
    <rect x="5" y="14" width="2" height="1" fill="#09121b"/><rect x="8" y="14" width="2" height="1" fill="#09121b"/>
  </g>
  <g transform="translate(16 0)">
    <rect x="5" y="2" width="4" height="1" fill="#f8fbff"/>
    <rect x="4" y="3" width="6" height="2" fill="#f8fbff"/>
    <rect x="5" y="4" width="4" height="3" fill="#0b1622"/>
    <rect x="6" y="5" width="1" height="1" fill="#f2f7ff"/><rect x="7" y="5" width="1" height="1" fill="#f2f7ff"/>
    <rect x="4" y="7" width="5" height="6" fill="#d7e7f7"/>
    <rect x="3" y="12" width="7" height="2" fill="#d7e7f7"/>
    <rect x="8" y="9" width="2" height="3" fill="#cfe1f5"/>
    <rect x="4" y="14" width="2" height="1" fill="#09121b"/><rect x="8" y="15" width="2" height="1" fill="#09121b"/>
  </g>
  <g transform="translate(32 0)">
    <rect x="5" y="2" width="4" height="1" fill="#f8fbff"/>
    <rect x="4" y="3" width="6" height="2" fill="#f8fbff"/>
    <rect x="5" y="4" width="4" height="3" fill="#0b1622"/>
    <rect x="6" y="5" width="1" height="1" fill="#f2f7ff"/><rect x="7" y="5" width="1" height="1" fill="#f2f7ff"/>
    <rect x="4" y="7" width="5" height="6" fill="#d7e7f7"/>
    <rect x="3" y="12" width="7" height="2" fill="#d7e7f7"/>
    <rect x="9" y="9" width="2" height="3" fill="#cfe1f5"/>
    <rect x="5" y="15" width="2" height="1" fill="#09121b"/><rect x="9" y="14" width="2" height="1" fill="#09121b"/>
  </g>
</svg>
